<?xml version="1.0" standalone="no"?>
<!DOCTYPE svg PUBLIC "-//W3C//DTD SVG 20010904//EN"
 "http://www.w3.org/TR/2001/REC-SVG-20010904/DTD/svg10.dtd">
<svg version="1.0" xmlns="http://www.w3.org/2000/svg"
 width="500.000000pt" height="500.000000pt" viewBox="0 0 500.000000 500.000000"
 preserveAspectRatio="xMidYMid meet">
<metadata>
Created by potrace 1.11, written by Peter Selinger 2001-2013
</metadata>
<g transform="translate(0.000000,500.000000) scale(0.100000,-0.100000)"
fill="#000000" stroke="none">
<path d="M1464 4350 c-779 -4 -964 -8 -977 -18 -28 -23 -40 -84 -40 -192 0
-121 16 -174 58 -190 17 -6 338 -10 877 -10 676 0 849 -3 845 -12 -2 -7 -87
-142 -188 -300 -764 -1194 -948 -1482 -1031 -1613 -17 -27 -52 -81 -77 -120
-25 -38 -50 -78 -56 -88 -9 -16 -133 -210 -220 -344 -106 -163 -172 -271 -182
-293 -3 -8 -12 -22 -19 -30 -33 -40 -51 -133 -49 -255 3 -151 22 -195 99 -225
20 -7 597 -10 1999 -10 1866 0 1971 0 2005 17 73 37 89 83 87 260 l-1 113 -45
87 c-43 84 -536 862 -1027 1620 -45 71 -85 135 -89 143 -4 8 -34 56 -68 107
-33 51 -89 138 -125 195 -36 56 -87 137 -115 180 -27 42 -108 169 -179 280
-71 112 -139 219 -152 239 -13 19 -24 38 -24 42 0 4 381 7 848 7 466 0 857 3
869 6 48 13 66 69 66 199 0 107 -9 150 -39 180 l-25 25 -947 1 c-521 0 -985 1
-1032 2 -47 1 -517 0 -1046 -3z m1076 -916 c19 -31 42 -68 51 -83 65 -104 600
-938 608 -948 6 -7 11 -14 11 -17 0 -2 86 -138 191 -302 105 -165 204 -319
220 -344 34 -53 183 -286 254 -397 93 -146 157 -248 165 -263 8 -14 -146 -16
-1540 -16 -1073 0 -1547 3 -1543 11 11 19 124 199 171 273 42 64 107 167 260
407 24 39 64 99 87 135 23 36 127 198 230 360 104 162 207 324 230 360 23 36
75 117 115 180 40 63 96 151 125 195 28 44 112 176 186 292 74 117 136 213
139 213 3 0 21 -25 40 -56z"/>
</g>
</svg>
